<svg width="140" height="24" viewBox="0 0 140 24" fill="none" xmlns="http://www.w3.org/2000/svg">
<path d="M0 0H24V12H0V0Z" fill="#6366F1"/>
<path d="M0 14H24V16.0353H0V14Z" fill="#6366F1"/>
<path d="M0 18H24V20.0353H0V18Z" fill="#6366F1"/>
<path d="M0 21.9647H24V24H0V21.9647Z" fill="#6366F1"/>
<path d="M131.195 2.87695V20.8887H127.82V2.87695H131.195ZM139.188 8.20898L133.68 14.4902L130.727 17.4785L129.496 15.041L131.84 12.0645L135.133 8.20898H139.188ZM135.684 20.8887L131.934 15.0293L134.266 12.9902L139.574 20.8887H135.684Z" fill="#35353A"/>
<path d="M120.543 18.4863C120.957 18.4863 121.324 18.4082 121.645 18.252C121.965 18.0879 122.215 17.8613 122.395 17.5723C122.582 17.2754 122.68 16.9277 122.688 16.5293H125.863C125.855 17.4199 125.617 18.2129 125.148 18.9082C124.68 19.5957 124.051 20.1387 123.262 20.5371C122.473 20.9277 121.59 21.123 120.613 21.123C119.629 21.123 118.77 20.959 118.035 20.6309C117.309 20.3027 116.703 19.8496 116.219 19.2715C115.734 18.6855 115.371 18.0059 115.129 17.2324C114.887 16.4512 114.766 15.6152 114.766 14.7246V14.3848C114.766 13.4863 114.887 12.6504 115.129 11.877C115.371 11.0957 115.734 10.416 116.219 9.83789C116.703 9.25195 117.309 8.79492 118.035 8.4668C118.762 8.13867 119.613 7.97461 120.59 7.97461C121.629 7.97461 122.539 8.17383 123.32 8.57227C124.109 8.9707 124.727 9.54102 125.172 10.2832C125.625 11.0176 125.855 11.8887 125.863 12.8965H122.688C122.68 12.4746 122.59 12.0918 122.418 11.748C122.254 11.4043 122.012 11.1309 121.691 10.9277C121.379 10.7168 120.992 10.6113 120.531 10.6113C120.039 10.6113 119.637 10.7168 119.324 10.9277C119.012 11.1309 118.77 11.4121 118.598 11.7715C118.426 12.123 118.305 12.5254 118.234 12.9785C118.172 13.4238 118.141 13.8926 118.141 14.3848V14.7246C118.141 15.2168 118.172 15.6895 118.234 16.1426C118.297 16.5957 118.414 16.998 118.586 17.3496C118.766 17.7012 119.012 17.9785 119.324 18.1816C119.637 18.3848 120.043 18.4863 120.543 18.4863Z" fill="#35353A"/>
<path d="M109.305 18.0293V12.3809C109.305 11.9746 109.238 11.627 109.105 11.3379C108.973 11.041 108.766 10.8105 108.484 10.6465C108.211 10.4824 107.855 10.4004 107.418 10.4004C107.043 10.4004 106.719 10.4668 106.445 10.5996C106.172 10.7246 105.961 10.9082 105.812 11.1504C105.664 11.3848 105.59 11.6621 105.59 11.9824H102.215C102.215 11.4434 102.34 10.9316 102.59 10.4473C102.84 9.96289 103.203 9.53711 103.68 9.16992C104.156 8.79492 104.723 8.50195 105.379 8.29102C106.043 8.08008 106.785 7.97461 107.605 7.97461C108.59 7.97461 109.465 8.13867 110.23 8.4668C110.996 8.79492 111.598 9.28711 112.035 9.94336C112.48 10.5996 112.703 11.4199 112.703 12.4043V17.8301C112.703 18.5254 112.746 19.0957 112.832 19.541C112.918 19.9785 113.043 20.3613 113.207 20.6895V20.8887H109.797C109.633 20.5449 109.508 20.1152 109.422 19.5996C109.344 19.0762 109.305 18.5527 109.305 18.0293ZM109.75 13.166L109.773 15.0762H107.887C107.441 15.0762 107.055 15.127 106.727 15.2285C106.398 15.3301 106.129 15.4746 105.918 15.6621C105.707 15.8418 105.551 16.0527 105.449 16.2949C105.355 16.5371 105.309 16.8027 105.309 17.0918C105.309 17.3809 105.375 17.6426 105.508 17.877C105.641 18.1035 105.832 18.2832 106.082 18.416C106.332 18.541 106.625 18.6035 106.961 18.6035C107.469 18.6035 107.91 18.502 108.285 18.2988C108.66 18.0957 108.949 17.8457 109.152 17.5488C109.363 17.252 109.473 16.9707 109.48 16.7051L110.371 18.1348C110.246 18.4551 110.074 18.7871 109.855 19.1309C109.645 19.4746 109.375 19.7988 109.047 20.1035C108.719 20.4004 108.324 20.6465 107.863 20.8418C107.402 21.0293 106.855 21.123 106.223 21.123C105.418 21.123 104.688 20.9629 104.031 20.6426C103.383 20.3145 102.867 19.8652 102.484 19.2949C102.109 18.7168 101.922 18.0605 101.922 17.3262C101.922 16.6621 102.047 16.0723 102.297 15.5566C102.547 15.041 102.914 14.6074 103.398 14.2559C103.891 13.8965 104.504 13.627 105.238 13.4473C105.973 13.2598 106.824 13.166 107.793 13.166H109.75Z" fill="#35353A"/>
<path d="M100.539 8.20898V10.5996H93.1562V8.20898H100.539ZM94.9844 5.08008H98.3594V17.0684C98.3594 17.4355 98.4062 17.7168 98.5 17.9121C98.6016 18.1074 98.75 18.2441 98.9453 18.3223C99.1406 18.3926 99.3867 18.4277 99.6836 18.4277C99.8945 18.4277 100.082 18.4199 100.246 18.4043C100.418 18.3809 100.562 18.3574 100.68 18.334L100.691 20.8184C100.402 20.9121 100.09 20.9863 99.7539 21.041C99.418 21.0957 99.0469 21.123 98.6406 21.123C97.8984 21.123 97.25 21.002 96.6953 20.7598C96.1484 20.5098 95.7266 20.1113 95.4297 19.5645C95.1328 19.0176 94.9844 18.2988 94.9844 17.4082V5.08008Z" fill="#35353A"/>
<path d="M88.6328 16.4238C88.6328 16.1191 88.5859 15.8457 88.4922 15.6035C88.4062 15.3535 88.2422 15.127 88 14.9238C87.7578 14.7129 87.418 14.5059 86.9805 14.3027C86.543 14.0996 85.9766 13.8887 85.2812 13.6699C84.5078 13.4199 83.7734 13.1387 83.0781 12.8262C82.3906 12.5137 81.7812 12.1504 81.25 11.7363C80.7266 11.3145 80.3125 10.8262 80.0078 10.2715C79.7109 9.7168 79.5625 9.07227 79.5625 8.33789C79.5625 7.62695 79.7188 6.98242 80.0312 6.4043C80.3438 5.81836 80.7812 5.31836 81.3438 4.9043C81.9062 4.48242 82.5703 4.1582 83.3359 3.93164C84.1094 3.70508 84.957 3.5918 85.8789 3.5918C87.1367 3.5918 88.2344 3.81836 89.1719 4.27148C90.1094 4.72461 90.8359 5.3457 91.3516 6.13477C91.875 6.92383 92.1367 7.82617 92.1367 8.8418H88.6445C88.6445 8.3418 88.5391 7.9043 88.3281 7.5293C88.125 7.14648 87.8125 6.8457 87.3906 6.62695C86.9766 6.4082 86.4531 6.29883 85.8203 6.29883C85.2109 6.29883 84.7031 6.39258 84.2969 6.58008C83.8906 6.75977 83.5859 7.00586 83.3828 7.31836C83.1797 7.62305 83.0781 7.9668 83.0781 8.34961C83.0781 8.63867 83.1484 8.90039 83.2891 9.13477C83.4375 9.36914 83.6562 9.58789 83.9453 9.79102C84.2344 9.99414 84.5898 10.1855 85.0117 10.3652C85.4336 10.5449 85.9219 10.7207 86.4766 10.8926C87.4062 11.1738 88.2227 11.4902 88.9258 11.8418C89.6367 12.1934 90.2305 12.5879 90.707 13.0254C91.1836 13.4629 91.543 13.959 91.7852 14.5137C92.0273 15.0684 92.1484 15.6973 92.1484 16.4004C92.1484 17.1426 92.0039 17.8066 91.7148 18.3926C91.4258 18.9785 91.0078 19.4746 90.4609 19.8809C89.9141 20.2871 89.2617 20.5957 88.5039 20.8066C87.7461 21.0176 86.8984 21.123 85.9609 21.123C85.1172 21.123 84.2852 21.0137 83.4648 20.7949C82.6445 20.5684 81.8984 20.2285 81.2266 19.7754C80.5625 19.3223 80.0312 18.7441 79.6328 18.041C79.2344 17.3379 79.0352 16.5059 79.0352 15.5449H82.5625C82.5625 16.0762 82.6445 16.5254 82.8086 16.8926C82.9727 17.2598 83.2031 17.5566 83.5 17.7832C83.8047 18.0098 84.1641 18.1738 84.5781 18.2754C85 18.377 85.4609 18.4277 85.9609 18.4277C86.5703 18.4277 87.0703 18.3418 87.4609 18.1699C87.8594 17.998 88.1523 17.7598 88.3398 17.4551C88.5352 17.1504 88.6328 16.8066 88.6328 16.4238Z" fill="#35353A"/>
<path d="M72.4141 21.123C71.4297 21.123 70.5469 20.9668 69.7656 20.6543C68.9844 20.334 68.3203 19.8926 67.7734 19.3301C67.2344 18.7676 66.8203 18.1152 66.5312 17.373C66.2422 16.623 66.0977 15.8262 66.0977 14.9824V14.5137C66.0977 13.5527 66.2344 12.6738 66.5078 11.877C66.7812 11.0801 67.1719 10.3887 67.6797 9.80273C68.1953 9.2168 68.8203 8.76758 69.5547 8.45508C70.2891 8.13477 71.1172 7.97461 72.0391 7.97461C72.9375 7.97461 73.7344 8.12305 74.4297 8.41992C75.125 8.7168 75.707 9.13867 76.1758 9.68555C76.6523 10.2324 77.0117 10.8887 77.2539 11.6543C77.4961 12.4121 77.6172 13.2559 77.6172 14.1855V15.5918H67.5391V13.3418H74.3008V13.084C74.3008 12.6152 74.2148 12.1973 74.043 11.8301C73.8789 11.4551 73.6289 11.1582 73.293 10.9395C72.957 10.7207 72.5273 10.6113 72.0039 10.6113C71.5586 10.6113 71.1758 10.709 70.8555 10.9043C70.5352 11.0996 70.2734 11.373 70.0703 11.7246C69.875 12.0762 69.7266 12.4902 69.625 12.9668C69.5312 13.4355 69.4844 13.9512 69.4844 14.5137V14.9824C69.4844 15.4902 69.5547 15.959 69.6953 16.3887C69.8438 16.8184 70.0508 17.1895 70.3164 17.502C70.5898 17.8145 70.918 18.0566 71.3008 18.2285C71.6914 18.4004 72.1328 18.4863 72.625 18.4863C73.2344 18.4863 73.8008 18.3691 74.3242 18.1348C74.8555 17.8926 75.3125 17.5293 75.6953 17.0449L77.3359 18.8262C77.0703 19.209 76.707 19.5762 76.2461 19.9277C75.793 20.2793 75.2461 20.5684 74.6055 20.7949C73.9648 21.0137 73.2344 21.123 72.4141 21.123Z" fill="#35353A"/>
<path d="M56.4297 10.916V20.8887H53.0547V8.20898H56.2188L56.4297 10.916ZM55.9375 14.1035H55.0234C55.0234 13.166 55.1445 12.3223 55.3867 11.5723C55.6289 10.8145 55.9688 10.1699 56.4062 9.63867C56.8438 9.09961 57.3633 8.68945 57.9648 8.4082C58.5742 8.11914 59.2539 7.97461 60.0039 7.97461C60.5977 7.97461 61.1406 8.06055 61.6328 8.23242C62.125 8.4043 62.5469 8.67773 62.8984 9.05273C63.2578 9.42773 63.5312 9.92383 63.7188 10.541C63.9141 11.1582 64.0117 11.9121 64.0117 12.8027V20.8887H60.6133V12.791C60.6133 12.2285 60.5352 11.791 60.3789 11.4785C60.2227 11.166 59.9922 10.9473 59.6875 10.8223C59.3906 10.6895 59.0234 10.623 58.5859 10.623C58.1328 10.623 57.7383 10.7129 57.4023 10.8926C57.0742 11.0723 56.8008 11.3223 56.582 11.6426C56.3711 11.9551 56.2109 12.3223 56.1016 12.7441C55.9922 13.166 55.9375 13.6191 55.9375 14.1035Z" fill="#35353A"/>
<path d="M50.3359 8.20898V20.8887H46.9492V8.20898H50.3359ZM46.7383 4.9043C46.7383 4.41211 46.9102 4.00586 47.2539 3.68555C47.5977 3.36523 48.0586 3.20508 48.6367 3.20508C49.207 3.20508 49.6641 3.36523 50.0078 3.68555C50.3594 4.00586 50.5352 4.41211 50.5352 4.9043C50.5352 5.39648 50.3594 5.80273 50.0078 6.12305C49.6641 6.44336 49.207 6.60352 48.6367 6.60352C48.0586 6.60352 47.5977 6.44336 47.2539 6.12305C46.9102 5.80273 46.7383 5.39648 46.7383 4.9043Z" fill="#35353A"/>
<path d="M44.9688 18.1465V20.8887H36.3789V18.1465H44.9688ZM37.5156 3.82617V20.8887H34V3.82617H37.5156Z" fill="#35353A"/>
</svg>
